<?xml version="1.0" encoding="utf-8"?>
<!-- Generator: Adobe Illustrator 27.1.1, SVG Export Plug-In . SVG Version: 6.00 Build 0)  -->
<svg version="1.1" id="Calque_1" xmlns="http://www.w3.org/2000/svg" xmlns:xlink="http://www.w3.org/1999/xlink" x="0px" y="0px"
	 viewBox="0 0 595.3 841.9" style="enable-background:new 0 0 595.3 841.9;" xml:space="preserve">
<g>
	<path d="M302,308.6c18.9,0,37.4,0,56.3,0c0.1-1.5,0.2-2.8,0.2-4.1c0-11.1,0-22.2,0-33.3c0-6.1,1.8-7.8,7.8-7.8
		c14.3,0,28.7,0,43.6,0c0-4.1,0-8.1,0-12c0.1-4.9,1.9-6.8,6.8-6.8c14.3,0,28.7,0,43,0c4.7,0,6.6,1.9,6.7,6.6
		c0.1,12.1,0.1,24.2,0,36.3c0,4.7-2,6.5-6.7,6.5c-14.3,0-28.7,0-43,0c-4.9,0-6.7-1.9-6.8-6.9c0-3.8,0-7.7,0-11.7
		c-13.3,0-26.2,0-39.3,0c0,10.8,0,21.6,0,32.8c1.6,0,3,0,4.5,0c34.6,0,69.1,0,103.7,0c6.2,0,8.4,2.1,8.4,8.2c0,79.3,0,158.7,0,238
		c0,6-1.8,7.8-7.8,7.8c-120.6,0-241.3,0-361.9,0c-6,0-7.6-1.7-7.6-7.9c0-79.1,0-158.2,0-237.3c0-6.6,1.7-8.3,8.5-8.3
		c31.3,0,62.6,0,93.9,0c1.5,0,2.9,0,4.6,0c0-11.3,0-22.2,0-33.6c-4.8,0-9.5,0-14.2,0c-7.5,0-15,0.1-22.5-0.1c-2.5,0-3.9,0.5-5.1,3.1
		c-3.8,8.4-12.3,12.7-21.5,11.3c-8.7-1.3-15.8-8.6-17-17.5c-1.3-8.8,3.5-17.5,11.8-21.4c8.1-3.8,17.6-1.9,23.6,4.7
		c0.9,1,2.1,2.1,2.4,3.3c1.1,4.9,4.5,4.8,8.5,4.8c12.8-0.2,25.7-0.1,38.5-0.1c5.8,0,7.5,1.8,7.5,7.7c0,12.2,0,24.4,0,36.9
		c20.4,0,40.7,0,61.4,0c0-2.3,0-4.7,0-7c0-6.4-0.2-12.7,0.1-19.1c0.3-4.9-0.5-8.1-5.6-10.7c-8.1-4.2-11-14.2-8.2-22.7
		c2.9-9.1,11.3-14.8,20.9-14.4c8.8,0.4,16.9,7.2,18.9,16c2,8.7-2.3,18.2-10.6,22.3c-2.9,1.5-3.7,3.1-3.7,6.2
		c0.2,8.6,0.1,17.2,0.1,25.8C302,305.7,302,307.1,302,308.6z M452.6,527.4c0-61.7,0-123.1,0-184.7c-102.9,0-205.6,0-308.4,0
		c0,61.7,0,123.1,0,184.7C247,527.4,349.6,527.4,452.6,527.4z M421.8,282c11.1,0,21.8,0,32.6,0c0-8.5,0-16.8,0-25.3
		c-11,0-21.7,0-32.6,0C421.8,265.2,421.8,273.5,421.8,282z M165.7,269.2c-0.1-4.6-4.4-8.8-8.9-8.8c-4.6,0.1-8.8,4.3-8.8,8.9
		c0.1,4.6,4.3,8.8,8.9,8.8C161.6,278.1,165.8,273.8,165.7,269.2z M295.8,263.3c4.7,0.1,8.9-3.9,9-8.6c0.1-4.6-3.9-8.8-8.7-8.9
		c-4.7-0.1-8.9,3.8-9,8.6C287.1,259,291.2,263.2,295.8,263.3z"/>
	<path d="M273.2,573.7c17.1,0,33.8,0,50.3,0c0.3,4.8,0.6,9.3,1,13.9c0.1,1.5,0.6,2.9,1.1,4.3c2.1,6.4,2.1,6.4,8.8,6.4
		c3.1,0,6.2-0.1,9.4,0c3.8,0.1,6.4,2.6,6.4,5.9c0,3.4-2.5,5.7-6.5,5.7c-29.9,0-59.9,0-89.8,0c-4,0-6.8-2.6-6.7-6
		c0-3.4,2.5-5.6,6.5-5.7c4.1-0.1,8.2-0.2,12.3,0c2.2,0.1,3.4-0.8,4.2-2.7C273.4,588.8,274.4,581.6,273.2,573.7z"/>
	<path d="M441.1,515.6c-95.3,0-190.1,0-285.5,0c0-1.4,0-2.7,0-4c0-51,0-102-0.1-153.1c0-3.4,0.8-4.4,4.3-4.4
		c92.3,0.1,184.6,0.1,276.9,0c3.4,0,4.4,0.8,4.4,4.3c-0.1,51-0.1,102-0.1,153.1C441.1,512.7,441.1,513.9,441.1,515.6z M298.2,493.9
		c32.2,0,58.4-26,58.5-58.1c0.1-32.1-26.1-58.5-58.1-58.6c-32.5-0.1-58.6,25.9-58.6,58.3C240,467.6,266.1,493.9,298.2,493.9z
		 M222,428.3c0-18.5,0-36.7,0-54.9c-16.3,0-32.4,0-48.5,0c0,18.4,0,36.6,0,54.9C189.7,428.3,205.7,428.3,222,428.3z M423.8,382.7
		c-16.6,0-32.8,0-49.1,0c0,3.9,0,7.6,0,11.4c16.5,0,32.7,0,49.1,0C423.8,390.2,423.8,386.5,423.8,382.7z M423.9,414.1
		c-16.7,0-32.9,0-49.1,0c0,3.9,0,7.6,0,11.2c16.5,0,32.8,0,49.1,0C423.9,421.4,423.9,417.8,423.9,414.1z M423.8,445.4
		c-16.6,0-32.9,0-49.1,0c0,3.9,0,7.4,0,11.1c16.5,0,32.7,0,49.1,0C423.8,452.7,423.8,449.2,423.8,445.4z M222,462.5
		c0-4,0-7.5,0-11.3c-16.4,0-32.7,0-49,0c0,3.9,0,7.5,0,11.3C189.4,462.5,205.6,462.5,222,462.5z M172.9,497.2c8.4,0,16.4,0,24.4,0
		c0-4,0-7.6,0-11.3c-8.3,0-16.3,0-24.4,0C172.9,489.8,172.9,493.4,172.9,497.2z M374.7,476.5c0,3.8,0,7.5,0,11.2
		c8.2,0,16.2,0,24.4,0c0-3.8,0-7.4,0-11.2C390.9,476.5,382.9,476.5,374.7,476.5z"/>
	<path d="M332.7,466.2c-7.6-18.8-18.9-27.3-35.5-27c-15.4,0.3-26.8,9.5-33,26.7c-15.1-9.9-16.4-41.4-2.5-59.5
		c16.3-21.2,47.8-24,67.7-6C349.2,418.2,351.1,447.2,332.7,466.2z M316.6,414.2c-0.1-10.1-8.4-18.4-18.4-18.2
		c-10.1,0.2-18.1,8.5-18,18.6c0.1,10,8.2,17.9,18.2,17.9C308.5,432.6,316.6,424.4,316.6,414.2z"/>
	<path d="M298.1,481.9c-6.4,0.1-13.1-1-19.6-4c-2.6-1.2-3.4-2.6-3.1-5.5c1.3-10,7.9-17.9,17.3-20.2c9.8-2.5,20.7,1.1,26.2,9.2
		c2.4,3.5,3.7,7.8,5.4,11.8c0.9,2.2,0.2,3.6-2.2,4.5C316,480.2,307.5,481.9,298.1,481.9z"/>
	<path d="M185.4,416.5c0-10.5,0-20.8,0-31.7c6.3,0,12.4,0,18.6,0c6.6,0,6.6,0,6.6,6.4c0,8.3,0,16.6,0,25.2
		C202.1,416.5,194,416.5,185.4,416.5z"/>
	<path d="M298.5,420.7c-3.5,0-6.4-2.7-6.5-6.2c-0.1-3.6,3-6.7,6.6-6.6c3.5,0.1,6.4,3,6.4,6.5C304.8,417.8,302,420.7,298.5,420.7z"/>
</g>
</svg>
