<?xml version="1.0" encoding="utf-8"?>
<!-- Generator: Adobe Illustrator 27.1.1, SVG Export Plug-In . SVG Version: 6.00 Build 0)  -->
<svg version="1.1" id="Calque_1" xmlns="http://www.w3.org/2000/svg" xmlns:xlink="http://www.w3.org/1999/xlink" x="0px" y="0px"
	 viewBox="0 0 24 24" style="enable-background:new 0 0 24 24;" xml:space="preserve">
<g>
	<path d="M12.2,5.6c1.1,0,2.1,0,3.2,0c0-0.1,0-0.2,0-0.2c0-0.6,0-1.3,0-1.9c0-0.3,0.1-0.4,0.4-0.4c0.8,0,1.6,0,2.5,0
		c0-0.2,0-0.5,0-0.7c0-0.3,0.1-0.4,0.4-0.4c0.8,0,1.6,0,2.5,0c0.3,0,0.4,0.1,0.4,0.4c0,0.7,0,1.4,0,2.1c0,0.3-0.1,0.4-0.4,0.4
		c-0.8,0-1.6,0-2.5,0c-0.3,0-0.4-0.1-0.4-0.4c0-0.2,0-0.4,0-0.7c-0.8,0-1.5,0-2.2,0c0,0.6,0,1.2,0,1.9c0.1,0,0.2,0,0.3,0
		c2,0,3.9,0,5.9,0c0.4,0,0.5,0.1,0.5,0.5c0,4.5,0,9.1,0,13.6c0,0.3-0.1,0.4-0.4,0.4c-6.9,0-13.8,0-20.7,0c-0.3,0-0.4-0.1-0.4-0.5
		c0-4.5,0-9,0-13.5c0-0.4,0.1-0.5,0.5-0.5c1.8,0,3.6,0,5.4,0c0.1,0,0.2,0,0.3,0c0-0.6,0-1.3,0-1.9c-0.3,0-0.5,0-0.8,0
		c-0.4,0-0.9,0-1.3,0C5,3.7,5,3.7,4.9,3.9C4.7,4.4,4.2,4.6,3.7,4.5c-0.5-0.1-0.9-0.5-1-1C2.6,3,2.9,2.5,3.4,2.3
		c0.5-0.2,1-0.1,1.3,0.3c0.1,0.1,0.1,0.1,0.1,0.2C4.9,3,5.1,3,5.3,3c0.7,0,1.5,0,2.2,0C7.9,3,8,3.1,8,3.5c0,0.7,0,1.4,0,2.1
		c1.2,0,2.3,0,3.5,0c0-0.1,0-0.3,0-0.4c0-0.4,0-0.7,0-1.1c0-0.3,0-0.5-0.3-0.6c-0.5-0.2-0.6-0.8-0.5-1.3c0.2-0.5,0.6-0.8,1.2-0.8
		c0.5,0,1,0.4,1.1,0.9c0.1,0.5-0.1,1-0.6,1.3c-0.2,0.1-0.2,0.2-0.2,0.4c0,0.5,0,1,0,1.5C12.2,5.5,12.2,5.5,12.2,5.6z M20.7,18.1
		c0-3.5,0-7,0-10.5c-5.9,0-11.7,0-17.6,0c0,3.5,0,7,0,10.5C9,18.1,14.9,18.1,20.7,18.1z M19,4.1c0.6,0,1.2,0,1.9,0c0-0.5,0-1,0-1.4
		c-0.6,0-1.2,0-1.9,0C19,3.1,19,3.6,19,4.1z M4.4,3.4c0-0.3-0.2-0.5-0.5-0.5c-0.3,0-0.5,0.2-0.5,0.5c0,0.3,0.2,0.5,0.5,0.5
		C4.1,3.9,4.4,3.6,4.4,3.4z M11.8,3c0.3,0,0.5-0.2,0.5-0.5c0-0.3-0.2-0.5-0.5-0.5c-0.3,0-0.5,0.2-0.5,0.5C11.3,2.8,11.5,3,11.8,3z"
		/>
	<path d="M10.5,20.8c1,0,1.9,0,2.9,0c0,0.3,0,0.5,0.1,0.8c0,0.1,0,0.2,0.1,0.2c0.1,0.4,0.1,0.4,0.5,0.4c0.2,0,0.4,0,0.5,0
		c0.2,0,0.4,0.2,0.4,0.3c0,0.2-0.1,0.3-0.4,0.3c-1.7,0-3.4,0-5.1,0c-0.2,0-0.4-0.1-0.4-0.3c0-0.2,0.1-0.3,0.4-0.3c0.2,0,0.5,0,0.7,0
		c0.1,0,0.2,0,0.2-0.2C10.5,21.6,10.6,21.2,10.5,20.8z"/>
	<path d="M20.1,17.4c-5.4,0-10.9,0-16.3,0c0-0.1,0-0.2,0-0.2c0-2.9,0-5.8,0-8.7c0-0.2,0-0.3,0.2-0.3c5.3,0,10.5,0,15.8,0
		c0.2,0,0.3,0,0.3,0.2c0,2.9,0,5.8,0,8.7C20.1,17.3,20.1,17.3,20.1,17.4z M11.9,16.2c1.8,0,3.3-1.5,3.3-3.3c0-1.8-1.5-3.3-3.3-3.3
		c-1.9,0-3.3,1.5-3.3,3.3C8.6,14.7,10.1,16.2,11.9,16.2z M7.6,12.5c0-1.1,0-2.1,0-3.1c-0.9,0-1.8,0-2.8,0c0,1.1,0,2.1,0,3.1
		C5.7,12.5,6.7,12.5,7.6,12.5z M19.1,9.8c-0.9,0-1.9,0-2.8,0c0,0.2,0,0.4,0,0.7c0.9,0,1.9,0,2.8,0C19.1,10.3,19.1,10.1,19.1,9.8z
		 M19.1,11.6c-1,0-1.9,0-2.8,0c0,0.2,0,0.4,0,0.6c0.9,0,1.9,0,2.8,0C19.1,12.1,19.1,11.9,19.1,11.6z M19.1,13.4c-0.9,0-1.9,0-2.8,0
		c0,0.2,0,0.4,0,0.6c0.9,0,1.9,0,2.8,0C19.1,13.8,19.1,13.6,19.1,13.4z M7.6,14.4c0-0.2,0-0.4,0-0.6c-0.9,0-1.9,0-2.8,0
		c0,0.2,0,0.4,0,0.6C5.7,14.4,6.6,14.4,7.6,14.4z M4.8,16.4c0.5,0,0.9,0,1.4,0c0-0.2,0-0.4,0-0.6c-0.5,0-0.9,0-1.4,0
		C4.8,16,4.8,16.2,4.8,16.4z M16.3,15.2c0,0.2,0,0.4,0,0.6c0.5,0,0.9,0,1.4,0c0-0.2,0-0.4,0-0.6C17.2,15.2,16.8,15.2,16.3,15.2z"/>
	<path d="M13.9,14.6c-0.4-1.1-1.1-1.6-2-1.5c-0.9,0-1.5,0.5-1.9,1.5c-0.9-0.6-0.9-2.4-0.1-3.4c0.9-1.2,2.7-1.4,3.9-0.3
		C14.8,11.9,15,13.5,13.9,14.6z M13,11.7c0-0.6-0.5-1-1.1-1c-0.6,0-1,0.5-1,1.1c0,0.6,0.5,1,1,1C12.5,12.7,13,12.2,13,11.7z"/>
	<path d="M11.9,15.5c-0.4,0-0.7-0.1-1.1-0.2c-0.1-0.1-0.2-0.2-0.2-0.3c0.1-0.6,0.5-1,1-1.2c0.6-0.1,1.2,0.1,1.5,0.5
		c0.1,0.2,0.2,0.4,0.3,0.7c0.1,0.1,0,0.2-0.1,0.3C13,15.4,12.5,15.5,11.9,15.5z"/>
	<path d="M5.5,11.8c0-0.6,0-1.2,0-1.8c0.4,0,0.7,0,1.1,0c0.4,0,0.4,0,0.4,0.4c0,0.5,0,0.9,0,1.4C6.5,11.8,6,11.8,5.5,11.8z"/>
	<path d="M12,12c-0.2,0-0.4-0.2-0.4-0.4c0-0.2,0.2-0.4,0.4-0.4c0.2,0,0.4,0.2,0.4,0.4C12.3,11.9,12.2,12,12,12z"/>
</g>
</svg>
